<svg width="44" height="43" viewBox="0 0 44 43" fill="none" xmlns="http://www.w3.org/2000/svg">
<path d="M21.3774 30.1358L22 31.0624L22.6226 30.1358C31.2721 17.2609 41.1341 14.9305 41.4816 14.851C41.482 14.8509 41.4824 14.8508 41.4828 14.8507L43.25 14.4538V16.2667C43.25 24.0273 41.0777 30.4452 37.3582 34.9084C33.6484 39.36 28.3611 41.9167 22 41.9167C15.5273 41.9167 10.2432 39.4155 6.56429 35.0008C2.87397 30.5724 0.75 24.1571 0.75 16.2667V14.4538L2.51835 14.851C2.86547 14.9304 12.7277 17.2606 21.3774 30.1358Z" stroke="#B18372" stroke-width="1.5"/>
<path d="M20.9472 3.07004L20.9475 3.06967L21.9997 1.95812L23.05 3.0693L23.0506 3.06996C26.6844 6.90477 28.883 10.6941 30.2128 13.8381C27.5318 15.4802 24.6768 17.7994 21.9724 21.1124C19.2498 17.8365 16.4156 15.5323 13.7651 13.8929C15.091 10.7369 17.2912 6.92725 20.9472 3.07004Z" stroke="#B18372" stroke-width="1.5"/>
</svg>
