<svg width="77" height="71" viewBox="0 0 77 71" fill="none" xmlns="http://www.w3.org/2000/svg">
<path d="M58.871 32.3352C58.3485 26.6022 56.6068 21.0471 53.7627 16.042C50.9187 11.0369 47.0378 6.69743 42.3802 3.31421L37.8033 0L33.5146 3.33506C29.0462 6.80903 25.3609 11.1866 22.6996 16.1818C20.0382 21.177 18.4606 26.6775 18.0698 32.324C16.3433 31.9986 14.5902 31.8348 12.8333 31.8349H0V42.35C0 57.918 12.6654 70.5833 28.2333 70.5833H48.7667C64.3346 70.5833 77 57.918 77 42.35V31.8349H64.1667C62.3896 31.8348 60.6166 32.0023 58.871 32.3352ZM36.6661 7.38719L37.9134 6.41667L39.3699 7.47141C43.5704 10.5227 47.045 14.4643 49.5453 19.0144C52.0456 23.5645 53.5099 28.6107 53.8336 33.7924C47.0459 36.4815 41.5546 41.6816 38.5 48.3129C35.4392 41.6693 29.9328 36.4631 23.1282 33.7791C23.3075 28.6556 24.6135 23.6346 26.9533 19.0731C29.2932 14.5116 32.6094 10.5217 36.6661 7.38719ZM35.9333 65.45H28.2333C15.4962 65.45 5.13333 55.0871 5.13333 42.35V36.9682H12.8333C25.5704 36.9682 35.9333 47.3311 35.9333 60.0682V65.45ZM71.8667 42.35C71.8667 55.0871 61.5037 65.45 48.7667 65.45H41.0667V60.0682C41.0667 47.3311 51.4296 36.9682 64.1667 36.9682H71.8667V42.35Z" fill="#B18372"/>
</svg>
